<?xml version="1.0" standalone="no"?>
<!DOCTYPE svg PUBLIC "-//W3C//DTD SVG 1.1//EN"
"http://www.w3.org/Graphics/SVG/1.1/DTD/svg11.dtd">

<svg width="352" height="179" view_box="0 0 352 179"
xmlns="http://www.w3.org/2000/svg"
xmlns:link="http://www.w3.org/1999/xlink">\n\n<desc>Généré par Mocodo 2.3.7 le Thu, 01 Sep 2022 10:23:14</desc>

<rect id="frame" x="0" y="0" width="352" height="179" fill="#ffffbf" stroke="none" stroke-width="0"/>

<!-- Association CONTIENT -->
<line x1="170" y1="136" x2="50" y2="136" stroke="#74add1" stroke-width="2"/>
<text x="94" y="153.0" fill="#d73027" font-family="Verdana" font-size="12">1,N</text>
<line x1="50" y1="43" x2="50" y2="136" stroke="#74add1" stroke-width="2"/>
<text x="55.0" y="94" fill="#d73027" font-family="Verdana" font-size="12">1,N</text>
<g id="association-CONTIENT">
	<path d="M 75 111 a 14 14 90 0 1 14 14 V 136 h -78 V 125 a 14 14 90 0 1 14 -14" fill="#abd9e9" stroke="#abd9e9" stroke-width="0"/>
	<path d="M 89 136.0 v 11 a 14 14 90 0 1 -14 14 H 25 a 14 14 90 0 1 -14 -14 V 136.0 H 78" fill="#e0f3f8" stroke="#e0f3f8" stroke-width="0"/>
	<rect x="11" y="111" width="78" height="50" fill="none" rx="14" stroke="#74add1" stroke-width="2"/>
	<line x1="11" y1="136" x2="89" y2="136" stroke="#74add1" stroke-width="1"/>
	<text x="18" y="128.7" fill="#000000" font-family="Verdana" font-size="12">CONTIENT</text>
	<text x="18" y="153.8" fill="#000000" font-family="Verdana" font-size="12">quantité</text>
</g>

<!-- Association APPARTIENT A -->
<line x1="170" y1="136" x2="297" y2="136" stroke="#74add1" stroke-width="2"/>
<text x="224" y="153.0" fill="#d73027" font-family="Verdana" font-size="12">1,1</text>
<line x1="297" y1="43" x2="297" y2="136" stroke="#74add1" stroke-width="2"/>
<text x="302.0" y="94" fill="#d73027" font-family="Verdana" font-size="12">1,N</text>
<g id="association-APPARTIENT A">
	<path d="M 329 111 a 14 14 90 0 1 14 14 V 136 h -92 V 125 a 14 14 90 0 1 14 -14" fill="#abd9e9" stroke="#abd9e9" stroke-width="0"/>
	<path d="M 343 136.0 v 11 a 14 14 90 0 1 -14 14 H 265 a 14 14 90 0 1 -14 -14 V 136.0 H 92" fill="#e0f3f8" stroke="#e0f3f8" stroke-width="0"/>
	<rect x="251" y="111" width="92" height="50" fill="none" rx="14" stroke="#74add1" stroke-width="2"/>
	<line x1="251" y1="136" x2="343" y2="136" stroke="#74add1" stroke-width="1"/>
	<text x="258" y="128.7" fill="#000000" font-family="Verdana" font-size="12">APPARTIENT A</text>
</g>

<!-- Entity UNITE -->
<g id="entity-UNITE">
	<g id="frame-UNITE">
		<rect x="264" y="9" width="66" height="25" fill="#fdae61" stroke="#fdae61" stroke-width="0"/>
		<rect x="264" y="34.0" width="66" height="43" fill="#fee090" stroke="#fee090" stroke-width="0"/>
		<rect x="264" y="9" width="66" height="68" fill="none" stroke="#f46d43" stroke-width="2"/>
		<line x1="264" y1="34" x2="330" y2="34" stroke="#f46d43" stroke-width="1"/>
	</g>
	<text x="277" y="26.7" fill="#000000" font-family="Verdana" font-size="12">UNITE</text>
	<text x="269" y="51.8" fill="#000000" font-family="Verdana" font-size="12">ref. unité</text>
	<line x1="269" y1="54" x2="325" y2="54" stroke="#000000" stroke-width="1"/>
	<text x="269" y="68.8" fill="#000000" font-family="Verdana" font-size="12">titre</text>
</g>

<!-- Entity COCKTAIL -->
<g id="entity-COCKTAIL">
	<g id="frame-COCKTAIL">
		<rect x="9" y="9" width="82" height="25" fill="#fdae61" stroke="#fdae61" stroke-width="0"/>
		<rect x="9" y="34.0" width="82" height="43" fill="#fee090" stroke="#fee090" stroke-width="0"/>
		<rect x="9" y="9" width="82" height="68" fill="none" stroke="#f46d43" stroke-width="2"/>
		<line x1="9" y1="34" x2="91" y2="34" stroke="#f46d43" stroke-width="1"/>
	</g>
	<text x="18" y="26.7" fill="#000000" font-family="Verdana" font-size="12">COCKTAIL</text>
	<text x="14" y="51.8" fill="#000000" font-family="Verdana" font-size="12">ref. cocktail</text>
	<line x1="14" y1="54" x2="85" y2="54" stroke="#000000" stroke-width="1"/>
	<text x="14" y="68.8" fill="#000000" font-family="Verdana" font-size="12">nom</text>
</g>

<!-- Entity INGREDIENT -->
<g id="entity-INGREDIENT">
	<g id="frame-INGREDIENT">
		<rect x="121" y="102" width="98" height="25" fill="#fdae61" stroke="#fdae61" stroke-width="0"/>
		<rect x="121" y="127.0" width="98" height="43" fill="#fee090" stroke="#fee090" stroke-width="0"/>
		<rect x="121" y="102" width="98" height="68" fill="none" stroke="#f46d43" stroke-width="2"/>
		<line x1="121" y1="127" x2="219" y2="127" stroke="#f46d43" stroke-width="1"/>
	</g>
	<text x="130" y="119.7" fill="#000000" font-family="Verdana" font-size="12">INGREDIENT</text>
	<text x="126" y="144.8" fill="#000000" font-family="Verdana" font-size="12">ref. ingredient</text>
	<line x1="126" y1="147" x2="213" y2="147" stroke="#000000" stroke-width="1"/>
	<text x="126" y="161.8" fill="#000000" font-family="Verdana" font-size="12">nom</text>
</g>
</svg>